<?xml version="1.0" standalone="no"?>
<!DOCTYPE svg PUBLIC "-//W3C//DTD SVG 20010904//EN"
 "http://www.w3.org/TR/2001/REC-SVG-20010904/DTD/svg10.dtd">
<svg version="1.0" xmlns="http://www.w3.org/2000/svg"
 width="198.000000pt" height="181.000000pt" viewBox="0 0 198.000000 181.000000"
 preserveAspectRatio="xMidYMid meet">

<g transform="translate(0.000000,181.000000) scale(0.100000,-0.100000)"
fill="#605bff" stroke="none">
<path d="M846 1715 c-201 -38 -390 -156 -513 -319 -75 -101 -122 -208 -147
-338 l-13 -66 229 -112 230 -112 23 22 c33 31 96 37 137 13 l33 -20 179 147
c144 119 181 154 191 184 7 21 21 46 31 57 22 24 85 44 116 36 36 -10 79 -46
93 -81 11 -26 41 -46 205 -130 l192 -98 -7 68 c-32 306 -204 555 -470 680 -49
23 -119 49 -155 58 -93 24 -258 29 -354 11z"/>
<path d="M1397 985 c-41 -36 -87 -41 -140 -15 l-45 22 -175 -143 c-133 -109
-176 -150 -176 -167 -2 -83 -100 -142 -176 -106 -39 18 -75 62 -75 91 0 15
-48 42 -220 125 l-220 107 0 -39 c0 -63 26 -181 59 -266 42 -107 100 -194 191
-285 388 -387 1048 -285 1308 201 42 79 76 175 87 252 l7 45 -195 102 c-108
55 -197 101 -199 101 -2 0 -15 -12 -31 -25z"/>
</g>
</svg>
